<svg id="logo" xmlns="http://www.w3.org/2000/svg" viewBox="0 0 271.44 288.6"><defs><style>.cls-1{fill:#06f;}.cls-2{fill:#fff;}</style></defs><title>logo</title><path id="hex" class="cls-1" d="M218.45,0.44L63.56,26.26A18,18,0,0,0,49.56,38L1.32,173.64A18,18,0,0,0,3,189.17l56.6,91.13a18,18,0,0,0,23.34,6.6l160.81-80.4a18,18,0,0,0,8.69-9.48l18-45.61a18,18,0,0,0,.7-11.07L238.85,13.75A18,18,0,0,0,218.45.44Z" transform="translate(-0.28 -0.2)"/><path id="p" class="cls-2" d="M139,219.76L101,201.1V68h51.9a66.5,66.5,0,1,1,0,133H139v18.76ZM139,163h13.9a28.5,28.5,0,1,0,0-57H139v57Z" transform="translate(-0.28 -0.2)"/></svg>